
<svg xmlns="http://www.w3.org/2000/svg" fill="none" viewBox="0 0 2461 1814">
    <g clip-path="url(#a)">
        <mask id="b" width="1780" height="1327" x="501" y="259" maskUnits="userSpaceOnUse" style="mask-type:luminance">
            <path fill="#fff" d="M502 770a944 944 0 0 1 546-465l-52 94-1 2-1 36v2l66 141 47 115 13 86-14 68-31 53a4 4 0 0 0 5 6l3-1v1l-72 25-7 2-23-5-184-49-295-111Zm783-509a954 954 0 0 1 324 38l-18 7-2 2-30 51-63 116-56 100-1-1-69-14v-6l85-11a4 4 0 0 0 0-8l-83-13-12-3-13-13h3l2 1 80-12a4 4 0 0 0 1-8l-80-18h-14v-4l5 2 2-1 67-24a4 4 0 0 0-1-8l-57-14h-2l-24 3-6-11c27-7 49-14 69-23 2 0 3-2 3-4s-2-3-3-3l-53-13h-2l-25 6v-7l76-25a4 4 0 0 0-1-8l-73-6 1-12 3-1 33-30a4 4 0 0 0-2-7l-45-3h-2l-5 1-15-15 3-1Zm639 202 20 17-23-3 3-14Zm49 43a940 940 0 0 1 226 1079l-41-33-68-61-90-80-1-1-60-29a4 4 0 0 0-6 3l-13-13-1-1-138-67 8 3c2 1 4 0 5-2l18-31a4 4 0 0 0-2-6l-188-63a4 4 0 0 0-6 3l-26-15a4 4 0 0 0-5 1l-34-66-4-2 79-11h1l73-28a4 4 0 0 0 2-7l-64-63-1-1-49-26 9-6 99 40a4 4 0 0 0 4-7l-67-70 2-3 109 34a4 4 0 0 0 3-7l-80-57-3-3 6-6 3 5 3 1 93 3c2 0 4-1 4-3 1-2 0-4-2-5l-67-30-5-4 7-12 2 4 3 2 102 16a4 4 0 0 0 2-8l-90-47 7-12 119 4c2 0 3-1 4-3 0-2-1-4-3-5l-95-37 6-9 119 14a4 4 0 0 0 2-8l-88-46 9-8 3 3 3 1 120-2a4 4 0 0 0 1-8l-117-40v-26l122 14a4 4 0 0 0 2-8l-104-48 13-18 25 8h1l104-9a4 4 0 0 0 1-8l-62-30-1-1-33-4 17-21 73-13Zm-603 88 16 3h2l44-8 1-1-49 88 13-26a4 4 0 0 0-2-6l-24-6v-6l26 11c2 1 4 0 5-2l18-32v-4c-1-2-3-2-4-2l-23 4-22-4-1-9Zm372 461 20-12a4 4 0 0 0-1-8l-41-7h-2l-42 15c-2 1-3 3-2 5 0 2 1 3 3 3l20 2-11-1a4 4 0 0 0-1 8 6461 6461 0 0 0 7 4c-1 2-1 4 1 5l44 30 2 1 51-4c2 0 3-2 3-4 1-2-1-4-3-4l-41-12 48-9a4 4 0 0 0 0-8l-55-4Z"/>
        </mask>
        <g stroke="#B6B6B6" stroke-linejoin="round" stroke-miterlimit="1.5" stroke-width="3.1" mask="url(#b)">
            <path d="m690 495 1608 1658M-46 1209l1609 1657M1066 147l1608 1657M330 860l1609 1658M667 517l1608 1658M-69 1231l1609 1658M1043 169l1608 1658M307 883l1609 1657M713 473l1608 1657M-23 1186l1609 1658M1089 124l1608 1658M353 838l1608 1658M736 450l1608 1658M0 1164l1609 1658M1112 102l1608 1658M376 816l1608 1657M759 428l1608 1658M23 1142l1608 1657M1135 80l1608 1657M399 793l1608 1658M782 406l1608 1657M46 1119l1608 1658M1158 57l1608 1658M422 771l1608 1658M805 383l1608 1658M69 1097l1608 1658M1181 35l1608 1658M445 749l1608 1657M828 361l1608 1658M92 1075l1608 1657M1203 13l1609 1657M468 727l1608 1657M851 339l1608 1657M115 1052l1608 1658M1226-9l1609 1657M491 704l1608 1658M873 316l1609 1658M138 1030l1608 1658M1249-32l1609 1658M514 682l1608 1658M896 294l1609 1658M161 1008l1608 1658M1272-54l1609 1658M537 660l1608 1657M919 272l1609 1658M184 986l1608 1657M1295-76l1609 1657M560 637l1608 1658M942 250l1609 1657M207 963l1608 1658M1318-99l1609 1658M583 615l1608 1658M965 227l1609 1658M230 941l1608 1658M1341-121l1609 1658M606 593l1608 1657M988 205l1609 1658M253 919l1608 1657M1364-143l1609 1657M629 570l1608 1658M1011 183l1609 1657M276 896l1608 1658M1387-166l1609 1658M652 548l1608 1658M690 495l1608 1658M-46 1209l1609 1657M1066 147l1608 1657M330 860l1609 1658M667 517l1608 1658M-69 1231l1609 1658M1043 169l1608 1658M307 883l1609 1657M713 473l1608 1657M-23 1186l1609 1658M1089 124l1608 1658M353 838l1608 1658M736 450l1608 1658M0 1164l1609 1658M1112 102l1608 1658M376 816l1608 1657M759 428l1608 1658M23 1142l1608 1657M1135 80l1608 1657M399 793l1608 1658M782 406l1608 1657M46 1119l1608 1658M1158 57l1608 1658M422 771l1608 1658M805 383l1608 1658M69 1097l1608 1658M1181 35l1608 1658M445 749l1608 1657M828 361l1608 1658M92 1075l1608 1657M1203 13l1609 1657M468 727l1608 1657M851 339l1608 1657M115 1052l1608 1658M1226-9l1609 1657M491 704l1608 1658M873 316l1609 1658M138 1030l1608 1658M1249-32l1609 1658M514 682l1608 1658M896 294l1609 1658M161 1008l1608 1658M1272-54l1609 1658M537 660l1608 1657M919 272l1609 1658M184 986l1608 1657M1295-76l1609 1657M560 637l1608 1658M942 250l1609 1657M207 963l1608 1658M1318-99l1609 1658M583 615l1608 1658M965 227l1609 1658M230 941l1608 1658M1341-121l1609 1658M606 593l1608 1657M988 205l1609 1658M253 919l1608 1657M1364-143l1609 1657M629 570l1608 1658M1011 183l1609 1657M276 896l1608 1658M1387-166l1609 1658M652 548l1608 1658M1897-594 240 1014m2372-871L955 1751M2246-218 588 1390m2373-871L1303 2127m572-2744L217 991m2373-871L932 1728M2223-241 566 1367m2372-871L1281 2104m639-2675L262 1037m2373-871L977 1774M2268-195 610 1413m2373-871L1325 2150m617-2698L284 1060m2373-871L999 1797M2290-172 633 1436m2372-871L1348 2173m616-2698L307 1083m2372-871L1022 1820M2313-149 655 1459m2372-871L1370 2196m617-2698L329 1106m2372-871L1044 1843M2335-126 677 1482m2373-871L1392 2219m617-2698L351 1129m2373-871L1066 1866M2357-103 700 1505m2372-871L1414 2242m617-2698L374 1152m2372-871L1088 1889M2379-80 722 1528m2372-871L1437 2265m616-2698L396 1175m2372-871L1111 1912M2402-57 744 1551m2373-871L1459 2288m617-2698L418 1198m2373-871L1133 1935M2424-34 766 1574m2373-872L1481 2311m617-2698L440 1221m2373-872L1155 1958M2446-11 789 1597m2372-872L1504 2334m616-2698L463 1244m2372-872L1178 1981M2469 12 811 1620m2373-872L1526 2357m617-2698L485 1267m2373-872L1200 2004M2491 35 833 1643m2373-872L1548 2380m617-2698L507 1290m2373-872L1222 2027M2513 58 856 1666m2372-872L1571 2403m616-2698L530 1313m2372-872L1245 2050M2536 81 878 1689m2372-872L1593 2426m617-2698L552 1336m2372-872L1267 2073M2558 104 900 1712m2373-872L1615 2449m282-3043L240 1014m2372-871L955 1751M2246-218 588 1390m2373-871L1303 2127m572-2744L217 991m2373-871L932 1728M2223-241 566 1367m2372-871L1281 2104m639-2675L262 1037m2373-871L977 1774M2268-195 610 1413m2373-871L1325 2150m617-2698L284 1060m2373-871L999 1797M2290-172 633 1436m2372-871L1348 2173m616-2698L307 1083m2372-871L1022 1820M2313-149 655 1459m2372-871L1370 2196m617-2698L329 1106m2372-871L1044 1843M2335-126 677 1482m2373-871L1392 2219m617-2698L351 1129m2373-871L1066 1866M2357-103 700 1505m2372-871L1414 2242m617-2698L374 1152m2372-871L1088 1889M2379-80 722 1528m2372-871L1437 2265m616-2698L396 1175m2372-871L1111 1912M2402-57 744 1551m2373-871L1459 2288m617-2698L418 1198m2373-871L1133 1935M2424-34 766 1574m2373-872L1481 2311m617-2698L440 1221m2373-872L1155 1958M2446-11 789 1597m2372-872L1504 2334m616-2698L463 1244m2372-872L1178 1981M2469 12 811 1620m2373-872L1526 2357m617-2698L485 1267m2373-872L1200 2004M2491 35 833 1643m2373-872L1548 2380m617-2698L507 1290m2373-872L1222 2027M2513 58 856 1666m2372-872L1571 2403m616-2698L530 1313m2372-872L1245 2050M2536 81 878 1689m2372-872L1593 2426m617-2698L552 1336m2372-872L1267 2073M2558 104 900 1712m2373-872L1615 2449"/>
        </g>
        <path fill="#000" fill-rule="evenodd" d="M682 500a961 961 0 0 1 375-218l-10 20-17 30a922 922 0 0 0-321 197l-27-29Zm682-221h-9c-2-1-3-3-6-3l-45-3h-3l-3 1-11-11 38-20c2 0 3-2 4-3a968 968 0 0 1 36 0l-1 39Zm676 264a958 958 0 0 1 260 683l-40-1 1-24c0-244-95-466-250-631l29-27Z" clip-rule="evenodd"/>
        <path fill="#FF9E00" fill-rule="evenodd" d="M481 768a987 987 0 0 1 200-266l32 34a939 939 0 0 0-187 249l-45-17Zm1104-456c-72-19-145-29-217-31l1-47c91 1 183 16 273 45l-48 21c-2 0-3 1-4 3l-5 9Zm377 144 24 21-59-8 2-8 4 1h3l26-6Zm46 41 37 38-35 33c-19-21-40-41-61-60l59-11Zm166 1070c49-113 75-230 79-345l47 1c-4 125-33 251-87 373l-1 2-38-31Z" clip-rule="evenodd"/>
        <path fill="#fff" fill-rule="evenodd" d="m179 692 99-4 78 43-106 26-103 24 7-70 25-19Z" clip-rule="evenodd"/>
        <path fill="#000" fill-rule="evenodd" d="M155 693 78 795l2 24 70-39 25-45s52-23 82-23c-19-4-58-1-73 2-16 2-26 3-13-9l9-13-25 1Z" clip-rule="evenodd"/>
        <path fill="#FF0096" fill-rule="evenodd" d="m290 714-14-26h63l80 56 376 142s202 54 210 54c4 0 52-20 105-36 48-15 99-28 120-31l-3 5s-31 9-60 24l-69 37s-54 50-54 59l7 35c3 8-2 10 31 20l167 54s189 21 203 19c15-2 111-34 124-41s21-17 22-24c0-6-29-37-48-51-20-15-74-50-85-52l-47-7-84 14-8-1 131-26 40 8 138 73 64 63-74 28-172 22-233-21-209-52-336-160-271-117-113-2-21-10-21-13 36-35s42 1 51 5c-10-13-46-13-46-13Zm1388 333 41-15 41 7-21 13-61-5Zm17 18 94 27-50 4-44-31Zm-283 72 41 4 94-12 52 102-117-50-70-44Zm176 58 181 107 148 72 80 78-43-34-16-8-221-120-113-62-16-33Zm32 13 189 62-18 32-18-7 16-14c7-5 0-7 0-7l-30-1-60-19-79-46Zm317 177 60 29 90 79 68 62a48918 48918 0 0 0 115 97l53 64-149-122c-17-14-133-107-143-117l-94-92Zm350 278 125 69 49 85-115-84-59-70Zm-535-347 17 8-211 212c-41 40-127 117-127 117v-5l71-77 250-255Zm-325 349 28-24-26 136-48 33 46-145Zm-348-761 31-53 14-70-13-87-47-115-66-142 2-36 53-95 60-124h2c-58 136-74 190-82 227 9 61 20 114 33 163l28 64 43 66 20 86-73 114-5 2Zm113 21 108-114 57-78 143-256 63-116 30-51 205-85-156 90-117 123-58 111-21 39-98 220-156 117Zm24 6 39-8 150-125 161-382 1-7 231-148-84 128-39 28 33-10-31 55-19 53c-2 8-3 17-10 23l-49 44s29-12 33-15l-30 68-25 100s-3 4-9 7c-7 3-14 3-29 18l-23 22s19-5 28-9l8-3-87 116c-11 17-22 43-22 43s-143 13-158 13l-41-2-28-9Zm-103-38 60-84 11-74-134-322 67-197 28 95v48l12-31 59 94-4 50 11-23 59 107-3 63 13-22 69 111c-20 33-43 64-66 95l-55 59-127 31Zm573 163 110 7-48 9-62-16Z" clip-rule="evenodd"/>
        <path fill="#000" fill-rule="evenodd" d="M2144 56c-24 13-103 96-103 96l-214 67 88-51s163-81 229-112Zm0 0 3-1-3 1Zm-854 493 148 29-6 6-45 9-23-5-74-39Zm219 325 74 111-65-50-9-61Zm27-21 161 166-99-41-62-125Zm19-37 109 100 81 57-119-37-71-120Zm33-32 114 95 67 30-92-3-89-122Zm24-47 109 91 93 49-102-17-100-123Zm18-36 123 75 98 38-119-4-102-109Zm22-47 230 120-119-14-111-106Zm-2-48 145 61 136 47-120 1-161-109Zm22-32 139 21 127 59-135-16-131-64Zm22-44 124 5 97 13 63 31-104 9-180-58Zm13-52 165-4 141 20-155 28-151-44Zm40-94 37-8 152-20 123 26-147 21-165-19Zm42-40 160-34 128 3-150 34-138-3Zm6-45 231-57 85-13-148 70h-168Zm20-36 127-54 205-55-88 57-244 52Zm-91 164 182-10 131 20-105 23-208-33Zm-403 201 73 20-17 31-56-51Zm-20-33 93 16 23-4-19 32-97-44Zm-34-90 104 21 84 13-98 13-90-47Zm-16-33 101 1 80 18-81 11-100-30Zm-4-35 107-13 58 14-67 25-98-26Zm-21-41 112-22 53 12c-22 8-46 16-75 23l-90-13Zm-30-40 108-24 83 7-83 27-108-10Zm-12-34 120-42 45 3-34 30-131 9Zm-22-31 96-48 64-6-77 41-83 13Zm-14-32 79-62 100-27-57 52-122 37Zm-16-26 93-93 60-28-32 58-121 63Zm-9-27 70-107 51-47c-10 24-19 49-26 75l-95 79Zm-8-24h-2l66-154 35-23-8 58-91 119Z" clip-rule="evenodd"/>
        <path fill="#FFA200" d="M12 1343v-143h57c10 0 20 2 27 6 8 4 14 9 18 16s6 16 6 25-2 18-6 24c-4 7-10 12-18 16s-17 5-28 5H30v-24h33l14-2c4-2 7-4 9-7s3-7 3-12-1-9-3-12-5-6-9-7c-4-2-8-3-14-3H43v118H12Zm77-65 36 65H92l-35-65h32Zm183-6c0 15-3 29-9 39-6 11-14 20-24 25-10 6-21 9-34 9-12 0-24-3-34-9-10-5-18-14-24-25s-8-24-8-39c0-16 2-29 8-40s14-19 24-25 22-8 34-8a61 61 0 0 1 58 34c6 10 9 23 9 39Zm-31 0c0-10-1-19-4-26s-7-12-13-15c-5-4-11-6-19-6a35 35 0 0 0-32 21c-2 7-4 16-4 26s2 18 5 25 7 12 12 16c6 4 12 5 19 5 8 0 14-1 19-5 6-4 10-9 13-16s4-15 4-25Zm141-72h31v93a50 50 0 0 1-28 46c-9 4-20 6-32 6-11 0-22-2-31-6-8-5-15-11-20-19-5-7-8-17-8-27v-93h30v90c0 6 2 11 4 15s6 7 10 10c5 2 10 4 15 4 6 0 11-2 16-4l10-10c2-4 3-9 3-15v-90Zm175 0v143h-26l-63-90h-1v90h-30v-143h27l61 90h2v-90h30Zm75 143h-51v-143h51c15 0 27 3 37 9 11 6 19 14 24 24 6 11 9 24 9 39 0 14-3 27-9 38-5 11-13 19-24 24-10 6-23 9-37 9Zm-20-26h19c9 0 16-1 22-5 6-3 11-8 14-14 3-7 5-16 5-26 0-11-2-20-5-26-3-7-8-12-14-15s-13-5-22-5h-19v91Zm231-117v143h-26l-62-90h-1v90h-30v-143h26l62 90h1v-90h30Zm25 143v-143h96v25h-66v34h61v25h-61v34h66v25h-96Zm115-118v-25h117v25h-44v118h-30v-118h-43Z"/>
        <path fill="#000" d="M131 1363h38l39 96h1l40-96h37v143h-29v-93h-2l-36 92h-20l-37-92h-1v93h-30v-143Zm311 72c0 15-3 29-9 39-6 11-14 20-24 25-10 6-21 9-34 9s-24-3-34-9c-10-5-18-14-24-25s-9-24-9-39c0-16 3-29 9-40s14-19 24-25 21-8 34-8 24 2 34 8 18 14 24 25 9 24 9 40Zm-31 0c0-10-1-19-4-26s-8-12-13-15c-5-4-12-6-19-6s-14 2-19 6c-6 3-10 8-13 15s-4 16-4 26 1 18 4 25 7 12 13 16c5 4 12 5 19 5s14-1 19-5 10-9 13-16 4-15 4-25Zm172-72v143h-26l-62-90h-1v90h-30v-143h27l61 90h1v-90h30Zm20 25v-25h117v25h-44v118h-30v-118h-43Zm136 118v-143h56c11 0 20 3 28 7s13 9 17 17c4 7 6 15 6 25 0 9-2 18-6 25s-10 13-17 17c-8 4-17 6-28 6h-36v-24h31c6 0 10-1 14-3s7-5 9-9l2-12-2-13c-2-3-5-6-9-8s-9-3-14-3h-21v118h-30Zm127 0v-143h96v25h-66v34h61v25h-61v34h66v25h-96Zm120 0v-143h30v118h61v25h-91Zm111 0v-143h30v118h61v25h-91Zm142-143v143h-31v-143h31Zm24 143v-143h96v25h-65v34h60v25h-60v34h66v25h-97Zm120 0v-143h57c10 0 20 2 27 6 8 4 14 9 18 16s6 16 6 25-2 18-6 24c-4 7-10 12-18 16s-17 5-28 5h-38v-24h33l14-2c4-2 7-4 9-7s3-7 3-12-1-9-3-12-5-6-9-7c-4-2-8-3-14-3h-20v118h-31Zm77-65 36 65h-33l-35-65h32Z"/>
    </g>
</svg>
